<svg width="128" height="128" xmlns="http://www.w3.org/2000/svg">
  <g>
    <title>background</title>
    <rect fill="none" id="canvas_background" height="402" width="582" y="-1" x="-1" />
  </g>
  <g>
    <title>Layer 1</title>
    <path id="svg_5" fill="#FD4233" d="m104,126l-80,0c-5.514,0 -10,-4.486 -10,-10l0,-104c0,-5.514 4.486,-10 10,-10l40.687,0c2.671,0 5.183,1.041 7.07,2.929l39.314,39.314c1.889,1.889 2.929,4.399 2.929,7.07l0,64.687c0,5.514 -4.486,10 -10,10zm-80,-120c-3.309,0 -6,2.691 -6,6l0,104c0,3.309 2.691,6 6,6l80,0c3.309,0 6,-2.691 6,-6l0,-64.687c0,-1.579 -0.641,-3.125 -1.757,-4.242l-39.314,-39.314c-1.133,-1.133 -2.64,-1.757 -4.242,-1.757l-40.687,0z" />
    <path id="svg_8" fill="#FF402F" d="m95.21,80.32c-0.07,-0.51 -0.48,-1.15 -0.92,-1.58c-1.26,-1.24 -4.03,-1.89 -8.25,-1.95c-2.86,-0.03 -6.3,0.22 -9.92,0.73c-1.62,-0.93 -3.29,-1.95 -4.6,-3.18c-3.53,-3.29 -6.47,-7.86 -8.31,-12.89c0.12,-0.47 0.22,-0.88 0.32,-1.3c0,0 1.98,-11.28 1.46,-15.1c-0.07,-0.52 -0.12,-0.67 -0.26,-1.08l-0.17,-0.44c-0.54,-1.25 -1.6,-2.57 -3.26,-2.5l-0.98,-0.03l-0.02,0c-1.86,0 -3.36,0.95 -3.76,2.36c-1.2,4.44 0.04,11.09 2.29,19.69l-0.58,1.4c-1.61,3.94 -3.63,7.9 -5.41,11.39l-0.23,0.45c-1.88,3.67 -3.58,6.79 -5.13,9.43l-1.59,0.84c-0.12,0.06 -2.85,1.51 -3.49,1.89c-5.43,3.25 -9.03,6.93 -9.63,9.85c-0.19,0.94 -0.05,2.13 0.92,2.68l1.54,0.78c0.67,0.33 1.38,0.5 2.1,0.5c3.87,0 8.36,-4.82 14.55,-15.62c7.14,-2.32 15.28,-4.26 22.41,-5.32c5.43,3.05 12.11,5.18 16.33,5.18c0.75,0 1.4,-0.07 1.92,-0.21c0.81,-0.22 1.49,-0.68 1.91,-1.3c0.82,-1.23 0.98,-2.93 0.76,-4.67zm-58.72,19.01c0.7,-1.93 3.5,-5.75 7.63,-9.13c0.26,-0.21 0.9,-0.81 1.48,-1.37c-4.32,6.89 -7.21,9.63 -9.11,10.5zm24.46,-56.33c1.24,0 1.95,3.13 2.01,6.07c0.06,2.94 -0.63,5 -1.48,6.53c-0.71,-2.26 -1.05,-5.82 -1.05,-8.15c0,0 -0.05,-4.45 0.52,-4.45zm-7.3,40.14c0.87,-1.55 1.77,-3.19 2.69,-4.92c2.25,-4.25 3.67,-7.57 4.72,-10.3c2.1,3.82 4.72,7.07 7.79,9.67c0.39,0.32 0.8,0.65 1.22,0.98c-6.25,1.23 -11.66,2.74 -16.42,4.57zm39.43,-0.35c-0.38,0.23 -1.47,0.37 -2.17,0.37c-2.26,0 -5.07,-1.03 -9,-2.72c1.51,-0.11 2.9,-0.17 4.14,-0.17c2.27,0 2.94,-0.01 5.17,0.56c2.22,0.57 2.25,1.72 1.86,1.96z" />
  </g>
</svg>